<svg width="1152" height="700" viewBox="0 0 1152 700" version="1.1" xmlns="http://www.w3.org/2000/svg" xmlns:xlink="http://www.w3.org/1999/xlink">
<title>illu</title>
<desc>Created using Figma</desc>
<g id="Canvas" transform="translate(4796 1086)">
<clipPath id="clip-0" clip-rule="evenodd">
<path d="M -4796 -1086L -3644 -1086L -3644 -386L -4796 -386L -4796 -1086Z" fill="#FFFFFF"/>
</clipPath>
<g id="illu" clip-path="url(#clip-0)">
<path d="M -4796 -1086L -3644 -1086L -3644 -386L -4796 -386L -4796 -1086Z" fill="#FFFFFF"/>
<g id="Rectangle">
<use xlink:href="#path0_fill" transform="translate(-4725 -1048)"/>
</g>
<g id="Ellipse 2">
<use xlink:href="#path1_fill" transform="translate(-3753 -448)"/>
</g>
<g id="Ellipse 2.1">
<use xlink:href="#path1_fill" transform="translate(-3753 -479)"/>
</g>
<g id="Ellipse 2.2">
<use xlink:href="#path1_fill" transform="translate(-3753 -510)"/>
</g>
<g id="Rectangle">
<use xlink:href="#path2_fill" transform="translate(-4725.5 -988)"/>
</g>
<g id="Vector">
<use xlink:href="#path3_stroke" transform="translate(-4669.11 -917.339)"/>
</g>
</g>
</g>
<defs>
<path id="path0_fill" d="M 0 2C 0 0.895431 0.895431 0 2 0L 70 0C 71.1046 0 72 0.895431 72 2L 72 55C 72 56.1046 71.1046 57 70 57L 2 57C 0.895431 57 0 56.1046 0 55L 0 2Z"/>
<path id="path1_fill" d="M 60 16C 60 26.4934 47.1208 32 30 32C 12.8792 32 0 26.4934 0 16C 0 5.50659 12.8792 0 30 0C 47.1208 0 60 5.50659 60 16Z"/>
<path id="path2_fill" d="M 2.64292 3.2596C 1.58289 1.95223 2.51331 0 4.19643 0L 71.0468 0C 71.6498 0 72.2206 0.272035 72.6003 0.740396L 99.3571 33.7404C 100.417 35.0478 99.4867 37 97.8036 37L 30.9532 37C 30.3502 37 29.7794 36.728 29.3997 36.2596L 2.64292 3.2596Z"/>
<path id="path3_stroke" d="M 0.459031 -0.198218C 0.349558 -0.451734 0.0552979 -0.568504 -0.198218 -0.459031C -0.451734 -0.349558 -0.568504 -0.0552979 -0.459031 0.198218L 0.459031 -0.198218ZM 32.2502 38.3552L 32.6197 38.0183L 32.2502 38.3552ZM 78.8338 82.9481L 79.1512 82.5617L 78.8338 82.9481ZM 131.921 124.09L 131.667 124.521L 131.667 124.521L 131.921 124.09ZM 299.741 184.941L 299.822 184.448L 299.741 184.941ZM 370.811 191.112L 370.816 190.612L 370.811 191.112ZM 406.645 190.316L 406.726 190.809L 406.645 190.316ZM 431.197 178.571L 431.588 178.258L 431.588 178.258L 431.197 178.571ZM 448.849 178.969L 448.759 178.477L 448.849 178.969ZM 474.795 179.831L 475.223 179.573L 475.223 179.573L 474.795 179.831ZM 496.228 233.98L 496.704 233.826L 496.228 233.98ZM 526.355 317.525L 526.816 317.332L 526.355 317.525ZM 592.581 380.765L 592.554 381.264L 592.581 380.765ZM 648.057 376.252L 647.929 375.769L 648.057 376.252ZM 678.183 366.033L 678.019 365.561L 678.183 366.033ZM 713.221 363.512L 713.087 363.03L 713.087 363.03L 713.221 363.512ZM 747.992 353.823L 747.645 354.183L 747.645 354.183L 747.992 353.823ZM 778.65 385.675L 778.33 386.06L 778.65 385.675ZM 847.265 422.04L 847.415 421.563L 847.265 422.04ZM 886.171 429.295C 886.44 429.358 886.708 429.19 886.771 428.921C 886.833 428.652 886.665 428.383 886.396 428.321L 886.171 429.295ZM -0.459031 0.198218C 2.95977 8.11544 8.2643 14.6785 14.0947 20.7868C 17.0094 23.8405 20.0634 26.7885 23.0808 29.7333C 26.1012 32.6812 29.0868 35.6278 31.8807 38.6921L 32.6197 38.0183C 29.8042 34.9303 26.7999 31.9657 23.7792 29.0177C 20.7556 26.0667 17.7174 23.134 14.818 20.0964C 9.02023 14.0221 3.8091 7.55983 0.459031 -0.198218L -0.459031 0.198218ZM 31.8807 38.6921C 46.5432 54.7734 61.6529 69.4799 78.5164 83.3344L 79.1512 82.5617C 62.3306 68.7425 47.2554 54.0704 32.6197 38.0183L 31.8807 38.6921ZM 78.5164 83.3344C 95.8179 97.5486 112.206 113.051 131.667 124.521L 132.174 123.66C 112.803 112.242 96.5251 96.8354 79.1512 82.5617L 78.5164 83.3344ZM 131.667 124.521C 184.537 155.683 239.157 175.461 299.66 185.434L 299.822 184.448C 239.441 174.495 184.938 154.759 132.174 123.66L 131.667 124.521ZM 299.66 185.434C 322.988 189.28 347.153 191.371 370.806 191.612L 370.816 190.612C 347.214 190.372 323.1 188.285 299.822 184.448L 299.66 185.434ZM 370.806 191.612C 382.472 191.731 395.063 192.724 406.726 190.809L 406.564 189.823C 395.015 191.719 382.582 190.732 370.816 190.612L 370.806 191.612ZM 406.726 190.809C 407.165 190.737 407.877 190.48 408.741 190.123C 409.622 189.758 410.711 189.266 411.928 188.693C 414.362 187.548 417.325 186.071 420.197 184.618C 423.057 183.172 425.866 181.729 427.928 180.684C 428.967 180.159 429.825 179.729 430.428 179.439C 430.731 179.293 430.963 179.185 431.12 179.119C 431.2 179.084 431.249 179.066 431.273 179.058C 431.288 179.053 431.276 179.058 431.248 179.062C 431.236 179.064 431.195 179.07 431.139 179.065C 431.102 179.061 430.934 179.042 430.807 178.883L 431.588 178.258C 431.458 178.096 431.284 178.074 431.239 178.07C 431.175 178.063 431.123 178.07 431.098 178.074C 431.044 178.082 430.996 178.097 430.965 178.107C 430.897 178.129 430.815 178.162 430.727 178.199C 430.549 178.275 430.3 178.391 429.994 178.538C 429.381 178.833 428.515 179.266 427.476 179.792C 425.384 180.852 422.627 182.268 419.746 183.726C 416.876 185.177 413.923 186.65 411.502 187.789C 410.291 188.358 409.219 188.843 408.358 189.199C 407.48 189.563 406.871 189.772 406.564 189.823L 406.726 190.809ZM 430.807 178.883C 431.132 179.29 431.648 179.568 432.225 179.767C 432.811 179.97 433.521 180.112 434.302 180.209C 435.863 180.403 437.775 180.425 439.696 180.358C 443.539 180.222 447.498 179.722 448.938 179.461L 448.759 178.477C 447.37 178.729 443.459 179.224 439.661 179.358C 437.761 179.425 435.91 179.401 434.425 179.216C 433.682 179.124 433.047 178.993 432.551 178.822C 432.045 178.647 431.74 178.448 431.588 178.258L 430.807 178.883ZM 448.938 179.461C 451.502 178.995 453.95 178.023 456.267 177.045C 458.602 176.06 460.784 175.078 462.887 174.533C 464.976 173.992 466.927 173.901 468.794 174.653C 470.662 175.406 472.523 177.035 474.367 180.09L 475.223 179.573C 473.31 176.404 471.303 174.586 469.167 173.726C 467.03 172.864 464.842 172.994 462.636 173.565C 460.443 174.133 458.173 175.156 455.878 176.124C 453.564 177.101 451.204 178.032 448.759 178.477L 448.938 179.461ZM 474.367 180.09C 484.177 196.347 489.93 216.13 495.753 234.134L 496.704 233.826C 490.899 215.877 485.108 195.955 475.223 179.573L 474.367 180.09ZM 495.753 234.134C 504.849 262.256 514.446 290.431 525.894 317.719L 526.816 317.332C 515.385 290.084 505.798 261.941 496.704 233.826L 495.753 234.134ZM 525.894 317.719C 538.571 347.934 556.425 379.344 592.554 381.264L 592.607 380.265C 557.153 378.381 539.509 347.585 526.816 317.332L 525.894 317.719ZM 592.554 381.264C 611.234 382.257 630.001 381.539 648.184 376.736L 647.929 375.769C 629.883 380.536 611.231 381.255 592.607 380.265L 592.554 381.264ZM 648.184 376.736C 658.527 374.004 668.334 369.979 678.347 366.506L 678.019 365.561C 667.936 369.059 658.224 373.05 647.929 375.769L 648.184 376.736ZM 678.347 366.506C 683.921 364.572 689.744 364.72 695.669 364.975C 701.564 365.23 707.572 365.593 713.354 363.993L 713.087 363.03C 707.488 364.578 701.653 364.233 695.713 363.976C 689.803 363.721 683.798 363.556 678.019 365.561L 678.347 366.506ZM 713.354 363.993C 722.202 361.546 730.425 357.724 738.395 353.74L 737.948 352.845C 729.989 356.825 721.837 360.609 713.087 363.03L 713.354 363.993ZM 738.395 353.74C 739.727 353.073 741.504 352.645 743.231 352.664C 744.963 352.682 746.571 353.147 747.645 354.183L 748.339 353.463C 747.015 352.186 745.118 351.684 743.242 351.664C 741.36 351.644 739.426 352.106 737.948 352.845L 738.395 353.74ZM 747.645 354.183C 752.936 359.285 757.74 364.864 762.665 370.376C 767.582 375.879 772.614 381.306 778.33 386.06L 778.97 385.291C 773.314 380.588 768.325 375.209 763.411 369.709C 758.503 364.218 753.665 358.599 748.339 353.463L 747.645 354.183ZM 778.33 386.06C 798.168 402.554 822.576 414.801 847.115 422.517L 847.415 421.563C 822.976 413.879 798.69 401.688 778.97 385.291L 778.33 386.06ZM 847.115 422.517C 853.512 424.528 860.089 425.482 866.65 426.304C 873.223 427.128 879.769 427.818 886.171 429.295L 886.396 428.321C 879.93 426.829 873.318 426.132 866.774 425.312C 860.217 424.491 853.719 423.545 847.415 421.563L 847.115 422.517Z"/>
</defs>
</svg>
